<svg width="253" height="92" viewBox="0 0 253 92" fill="none" xmlns="http://www.w3.org/2000/svg">
<path d="M29.1175 37.3846C29.5536 39.5936 31.6334 41.021 31.6334 41.021C25.0585 41.021 19.6912 35.8552 19.2216 29.3299C19.188 29.024 19.188 19.338 19.188 19.338H28.1111C33.0423 19.338 37.0342 23.3823 37.0342 28.3783C37.0007 33.0343 33.5455 36.8748 29.1175 37.3846ZM65.4137 34.8016C67.0239 33.1703 68.0302 30.8932 68.0302 28.4123L68.0638 19.372H59.1071C56.6248 19.372 54.4108 20.3916 52.8006 22.0229L21.771 57.2324C20.1608 58.8637 19.1545 61.1407 19.1545 63.6217L19.1209 72.662H28.0776C30.5264 72.662 32.7739 71.6424 34.3841 70.0111L65.4137 34.8016ZM58.1008 54.6154C57.6647 52.4063 55.5849 50.9789 55.5849 50.9789C62.1598 50.9789 67.5271 56.1448 67.9967 62.6701C68.0302 62.976 68.0302 72.662 68.0302 72.662H59.1071C54.176 72.662 50.184 68.6176 50.184 63.6217C50.184 58.9656 53.6392 55.1252 58.1008 54.6154Z" fill="#FF445A"></path>
<path d="M90.6399 37.4525C94.5311 37.4525 96.9129 39.1858 98.1876 40.9191L94.9001 44.0458C93.9944 42.6864 92.619 41.9727 90.8747 41.9727C87.8556 41.9727 85.7087 44.2157 85.7087 47.5803C85.7087 50.945 87.8556 53.222 90.8747 53.222C92.619 53.222 93.9944 52.4064 94.9001 51.1489L98.1876 54.2416C96.9129 56.0429 94.5647 57.7761 90.6399 57.7761C84.7694 57.7761 80.5427 53.5959 80.5427 47.6143C80.5427 41.6328 84.7694 37.4525 90.6399 37.4525ZM100.67 37.9283H105.668V40.5792C107.01 38.846 109.358 37.4865 111.74 37.4865V42.4485C111.371 42.3805 110.901 42.2785 110.365 42.2785C108.721 42.2785 106.507 43.2301 105.668 44.4876V57.2324H100.67V37.9283ZM122.005 37.4525C127.674 37.4525 131.565 41.7687 131.565 48.0901V49.2117H117.409C117.711 51.6587 119.657 53.6978 122.877 53.6978C124.655 53.6978 126.735 52.9841 127.976 51.7946L130.19 55.0573C128.311 56.8245 125.292 57.7422 122.34 57.7422C116.537 57.7422 112.176 53.7998 112.176 47.5803C112.143 41.9727 116.202 37.4525 122.005 37.4525ZM117.309 45.7791H126.701C126.567 43.9438 125.326 41.4969 122.005 41.4969C118.885 41.4969 117.543 43.8419 117.309 45.7791ZM145.587 55.2272C144.279 56.7905 142.032 57.7082 139.549 57.7082C136.53 57.7082 132.907 55.635 132.907 51.3188C132.907 46.7987 136.497 45.1673 139.549 45.1673C142.065 45.1673 144.313 45.983 145.587 47.5124V44.8615C145.587 42.8903 143.944 41.6328 141.394 41.6328C139.348 41.6328 137.436 42.3805 135.826 43.9099L133.947 40.5113C136.262 38.4381 139.281 37.4865 142.266 37.4865C146.594 37.4865 150.586 39.2538 150.586 44.7935V57.2663H145.587V55.2272ZM145.587 50.1973C144.749 49.0757 143.172 48.532 141.562 48.532C139.583 48.532 137.973 49.5855 137.973 51.4547C137.973 53.256 139.583 54.2756 141.562 54.2756C143.172 54.2756 144.749 53.7318 145.587 52.6103V50.1973ZM155.349 52.4403V42.3805H152.196V37.9283H155.349V32.6605H160.381V37.9283H164.239V42.3805H160.381V51.0809C160.381 52.2704 161.018 53.188 162.125 53.188C162.863 53.188 163.601 52.9161 163.87 52.6443L164.943 56.4847C164.205 57.1644 162.863 57.7082 160.75 57.7082C157.261 57.7082 155.349 55.8729 155.349 52.4403ZM167.962 32.0488C167.962 30.3834 169.338 29.024 170.948 29.024C172.591 29.024 173.933 30.3834 173.933 32.0488C173.933 33.7141 172.591 35.0735 170.948 35.0735C169.338 35.1075 167.962 33.7481 167.962 32.0488ZM168.499 37.9283H173.497V57.2324H168.499V37.9283ZM174.94 37.9283H180.307L185.272 51.3528L190.236 37.9283H195.637L187.989 57.2324H182.588L174.94 37.9283ZM204.963 37.4525C210.632 37.4525 214.523 41.7687 214.523 48.0901V49.2117H200.367C200.669 51.6587 202.615 53.6978 205.835 53.6978C207.613 53.6978 209.693 52.9841 210.934 51.7946L213.148 55.0573C211.269 56.8245 208.25 57.7422 205.298 57.7422C199.495 57.7422 195.134 53.7998 195.134 47.5803C195.1 41.9727 199.16 37.4525 204.963 37.4525ZM200.266 45.7791H209.659C209.559 43.9438 208.284 41.4969 204.963 41.4969C201.843 41.4969 200.501 43.8419 200.266 45.7791ZM226.533 47.2745L233.376 37.9623H229.518L224.252 45.3033L218.985 37.9623H215.127L222.004 47.3424L214.725 57.2663H218.582L224.285 49.3816L229.988 57.2663H233.846L226.533 47.2745Z" fill="#605E5C"></path>
</svg>