<svg width="1000" height="1000" viewBox="0 0 1000 1000" fill="none" xmlns="http://www.w3.org/2000/svg">
<path d="M125 500.003C125 430.797 181.102 374.695 250.307 374.695C282.835 374.695 312.469 387.09 334.742 407.413V396.63H335.664V408.814L323.839 412.056L323.595 411.167L334.279 408.238C312.151 387.978 282.673 375.617 250.307 375.617C181.611 375.617 125.921 431.306 125.921 500.003C125.921 568.699 181.611 624.388 250.307 624.388C319.004 624.388 374.693 568.699 374.693 500.003H375.614C375.614 569.208 319.512 625.309 250.307 625.309C181.102 625.309 125 569.208 125 500.003Z" fill="#031531"></path>
<path d="M374.693 500.003C374.693 430.797 430.795 374.695 500 374.695C532.528 374.695 562.162 387.09 584.435 407.413V396.63H585.356V408.814L573.531 412.056L573.288 411.167L583.972 408.238C561.844 387.978 532.366 375.617 500 375.617C431.304 375.617 375.614 431.306 375.614 500.003C375.614 568.699 431.304 624.388 500 624.388C568.696 624.388 624.386 568.699 624.386 500.003H625.307C625.307 569.208 569.205 625.309 500 625.309C430.795 625.309 374.693 569.208 374.693 500.003Z" fill="#031531"></path>
<path d="M624.386 500.003C624.386 430.797 680.488 374.695 749.693 374.695C782.221 374.695 811.855 387.09 834.128 407.413V396.63H835.049V408.814L823.224 412.056L822.981 411.167L833.665 408.238C811.537 387.978 782.059 375.617 749.693 375.617C680.997 375.617 625.307 431.306 625.307 500.003C625.307 568.699 680.997 624.388 749.693 624.388C818.389 624.388 874.079 568.699 874.079 500.003H875C875 569.208 818.898 625.309 749.693 625.309C680.488 625.309 624.386 569.208 624.386 500.003Z" fill="#031531"></path>
<path d="M619.253 505.204C619.253 508.143 621.635 510.525 624.574 510.525C627.513 510.525 629.895 508.143 629.895 505.204C629.895 502.265 627.513 499.883 624.574 499.883C621.635 499.883 619.253 502.265 619.253 505.204Z" fill="#FF6275"></path>
<path d="M448.129 615.032C448.129 617.971 450.512 620.353 453.45 620.353C456.389 620.353 458.771 617.971 458.771 615.032C458.771 612.093 456.389 609.711 453.45 609.711C450.512 609.711 448.129 612.093 448.129 615.032Z" fill="#FF6275"></path>
<path d="M178.247 393.676C178.247 396.615 180.629 398.998 183.568 398.998C186.506 398.998 188.889 396.615 188.889 393.676C188.889 390.738 186.506 388.355 183.568 388.355C180.629 388.355 178.247 390.738 178.247 393.676Z" fill="#FF6275"></path>
</svg>