<svg width="1000" height="1000" viewBox="0 0 1000 1000" fill="none" xmlns="http://www.w3.org/2000/svg">
<path d="M861.942 274.122C793.031 352.966 757.683 465.159 739.572 557.724C730.519 603.993 725.778 645.33 723.3 675.099C722.062 689.983 721.388 701.974 721.025 710.242C720.844 714.376 720.74 717.58 720.681 719.749C720.652 720.833 720.634 721.659 720.623 722.213C720.618 722.49 720.614 722.7 720.612 722.84C720.611 722.909 720.61 722.962 720.61 722.997C720.61 723.014 720.609 723.027 720.609 723.036C720.609 723.04 720.609 723.043 720.609 723.046L719.832 723.039L720.609 723.049L719.054 723.063C717.547 673.386 703.727 594.876 674.294 528.655C644.838 462.378 599.906 408.746 536.33 408.129C472.784 407.512 431.889 459.551 406.589 525.352C381.31 591.1 371.753 670.236 370.717 723.055L369.162 723.052C368.645 689.94 362.123 640.363 344.267 599.251C326.405 558.125 297.324 525.702 251.762 526.317C206.192 526.933 177.88 559.622 160.99 600.56C144.105 641.489 138.747 690.441 139.005 723.033L137.45 723.046C137.19 690.323 142.562 641.148 159.552 599.967C176.538 558.795 205.248 525.391 251.741 524.762C298.241 524.134 327.736 557.284 345.694 598.631C360.499 632.719 367.543 672.538 369.854 704.096C372.57 652.309 382.643 583.298 405.137 524.794C430.482 458.877 471.749 405.946 536.345 406.574C600.91 407.2 646.216 461.649 675.716 528.023C702.04 587.251 715.907 656.243 719.677 705.838C720.072 697.903 720.712 687.451 721.751 674.97C724.232 645.158 728.98 603.763 738.046 557.426C756.173 464.776 791.587 352.255 860.771 273.099L861.942 274.122Z" fill="#031531"></path>
<path d="M491.27 428.178C486.759 431.086 480.743 429.787 477.835 425.275C474.926 420.764 476.226 414.748 480.737 411.84C485.249 408.931 491.264 410.231 494.173 414.742C497.081 419.254 495.782 425.269 491.27 428.178Z" fill="#F2A74E"></path>
<path d="M746.31 558.807C741.798 561.715 735.783 560.416 732.874 555.904C729.966 551.392 731.265 545.377 735.777 542.469C740.288 539.56 746.304 540.86 749.212 545.371C752.121 549.883 750.821 555.898 746.31 558.807Z" fill="#F2A74E"></path>
<path d="M143.702 728.314C139.19 731.223 133.175 729.923 130.266 725.412C127.358 720.9 128.657 714.885 133.169 711.976C137.681 709.068 143.696 710.367 146.604 714.879C149.513 719.391 148.214 725.406 143.702 728.314Z" fill="#F2A74E"></path>
<path d="M866.831 281.997C862.319 284.906 856.304 283.606 853.396 279.094C850.487 274.583 851.786 268.568 856.298 265.659C860.81 262.75 866.825 264.05 869.734 268.562C872.642 273.073 871.343 279.088 866.831 281.997Z" fill="#F2A74E"></path>
</svg>