<svg width="1000" height="1000" viewBox="0 0 1000 1000" fill="none" xmlns="http://www.w3.org/2000/svg">
<path d="M529.972 182.461C604.491 206.783 641.492 256.045 640.831 310.342C640.174 364.22 602.429 422.708 528.221 466.299L567.085 481.503L566.487 483.034L525.503 467.001L526.744 424.993L528.387 425.041L527.206 464.988C601.238 421.561 638.54 363.469 639.187 310.322C639.838 256.934 603.498 208.187 529.462 184.022L529.972 182.461Z" fill="#031531"></path>
<path d="M801.768 457.078C795.86 535.242 756.808 582.895 703.911 595.162C651.422 607.334 585.637 584.577 525.653 522.861L520.124 564.225L518.495 564.008L524.324 520.387L565.422 511.605L565.766 513.212L526.684 521.563C586.467 583.147 651.762 605.568 703.54 593.561C755.551 581.499 794.26 534.612 800.129 456.954L801.768 457.078Z" fill="#031531"></path>
<path d="M513.306 805.136C436.081 791.686 392.434 748.201 385.348 694.365C378.317 640.944 407.338 577.672 474.573 523.947L433.939 514.439L434.313 512.839L477.164 522.865L481.924 564.62L480.291 564.807L475.765 525.1C408.681 578.637 380.041 641.454 386.977 694.151C393.945 747.086 436.863 790.154 513.588 803.517L513.306 805.136Z" fill="#031531"></path>
<path d="M203.18 549.39C204.292 471.01 240.354 421.056 292.401 405.574C344.046 390.211 411.101 408.898 474.751 466.827L477.736 425.201L479.375 425.318L476.228 469.214L435.745 480.495L435.303 478.913L473.8 468.185C410.359 410.376 343.814 391.995 292.869 407.149C241.694 422.372 205.927 471.541 204.823 549.413L203.18 549.39Z" fill="#031531"></path>
<path d="M605.679 231.662C603.629 236.485 605.877 242.057 610.701 244.107C615.524 246.156 621.095 243.908 623.145 239.085C625.195 234.262 622.946 228.69 618.123 226.64C613.3 224.591 607.728 226.839 605.679 231.662Z" fill="#4C9AFF"></path>
<path d="M402.058 747.122C400.149 752.003 402.558 757.507 407.438 759.416C412.319 761.326 417.823 758.917 419.732 754.036C421.641 749.156 419.232 743.652 414.352 741.742C409.471 739.833 403.967 742.242 402.058 747.122Z" fill="#4C9AFF"></path>
</svg>