<svg width="1000" height="1000" viewBox="0 0 1000 1000" fill="none" xmlns="http://www.w3.org/2000/svg">
<path d="M541.743 628.355C633.413 607.803 711.582 574.441 763.865 537.19C790.011 518.561 809.601 499.019 821.201 479.699C832.797 460.386 836.328 441.446 830.698 423.865C825.068 406.284 810.692 391.358 789.108 379.483C767.517 367.605 738.874 358.877 705.099 353.682C637.56 343.295 549.928 347.105 458.258 367.657C366.588 388.21 288.419 421.572 236.135 458.823C209.989 477.451 190.399 496.993 178.799 516.313C167.203 535.626 163.672 554.567 169.302 572.148L167.352 572.586L167.085 571.728C144.978 498.822 274.65 406.782 457.649 365.754C641.365 324.566 809.258 350.387 832.648 423.428L832.915 424.284C855.022 497.191 725.351 589.23 542.353 630.258C358.637 671.446 190.743 645.626 167.352 572.586L169.302 572.148C174.933 589.73 189.309 604.655 210.892 616.529C232.483 628.408 261.126 637.136 294.901 642.33C362.44 652.717 450.074 648.907 541.743 628.355Z" fill="#031531"></path>
<path d="M541.743 459.058C633.413 438.506 711.582 405.144 763.865 367.893C790.011 349.264 809.601 329.722 821.201 310.403C832.797 291.089 836.328 272.149 830.698 254.568C825.068 236.987 810.692 222.061 789.108 210.187C767.517 198.308 738.874 189.58 705.099 184.386C637.56 173.998 549.928 177.808 458.258 198.361C366.588 218.913 288.419 252.275 236.135 289.526C209.989 308.155 190.399 327.697 178.799 347.016C167.203 366.33 163.672 385.27 169.302 402.852L167.352 403.289L167.085 402.431C144.978 329.525 274.65 237.485 457.649 196.458C641.365 155.269 809.258 181.09 832.648 254.131L832.915 254.987C855.022 327.894 725.351 419.933 542.353 460.961C358.637 502.15 190.743 476.329 167.352 403.289L169.302 402.852C174.933 420.433 189.309 435.358 210.892 447.232C232.483 459.111 261.126 467.839 294.901 473.033C362.44 483.42 450.074 479.61 541.743 459.058Z" fill="#031531"></path>
<path d="M541.743 801.644C633.413 781.092 711.582 747.73 763.865 710.479C790.011 691.85 809.601 672.308 821.201 652.989C832.797 633.675 836.328 614.735 830.698 597.154C825.068 579.573 810.692 564.647 789.108 552.772C767.517 540.894 738.874 532.166 705.099 526.971C637.56 516.584 549.928 520.394 458.258 540.946C366.588 561.499 288.419 594.861 236.135 632.112C209.989 650.74 190.399 670.282 178.799 689.602C167.203 708.915 163.672 727.856 169.302 745.437L167.352 745.875L167.085 745.017C144.978 672.111 274.65 580.071 457.649 539.044C641.365 497.855 809.258 523.676 832.648 596.717L832.915 597.573C855.022 670.48 725.351 762.519 542.353 803.547C358.637 844.736 190.743 818.915 167.352 745.875L169.302 745.437C174.933 763.019 189.309 777.944 210.892 789.818C232.483 801.697 261.126 810.425 294.901 815.619C362.44 826.006 450.074 822.196 541.743 801.644Z" fill="#031531"></path>
<path d="M633.57 174.435C631.442 179.445 633.777 185.231 638.786 187.36C643.796 189.489 649.582 187.154 651.711 182.144C653.84 177.135 651.505 171.349 646.495 169.22C641.486 167.091 635.699 169.426 633.57 174.435Z" fill="#36B27E"></path>
<path d="M387.665 643.971C385.536 648.98 387.872 654.767 392.881 656.895C397.89 659.024 403.677 656.689 405.806 651.68C407.934 646.67 405.599 640.884 400.59 638.755C395.581 636.626 389.794 638.961 387.665 643.971Z" fill="#36B27E"></path>
<path d="M824.42 616.635C822.291 621.644 824.626 627.431 829.636 629.559C834.645 631.688 840.432 629.353 842.561 624.344C844.689 619.334 842.354 613.548 837.345 611.419C832.335 609.29 826.549 611.625 824.42 616.635Z" fill="#36B27E"></path>
</svg>