<svg width="1000" height="1000" viewBox="0 0 1000 1000" fill="none" xmlns="http://www.w3.org/2000/svg">
<path d="M628 500.001C628 395.416 613.519 300.82 590.166 232.442C578.486 198.242 564.625 170.715 549.334 151.779C534.03 132.825 517.521 122.74 500.519 122.74C483.517 122.74 467.008 132.825 451.703 151.779C436.413 170.715 422.552 198.242 410.872 232.442C387.518 300.82 373.038 395.416 373.038 500.001C373.038 604.586 387.518 699.183 410.872 767.561C422.552 801.76 436.413 829.288 451.703 848.223C467.008 867.177 483.517 877.263 500.519 877.263V879.336C428.968 879.336 370.965 709.502 370.965 500.001C370.965 290.501 428.968 120.667 500.519 120.667C572.07 120.667 630.073 290.501 630.073 500.001C630.073 709.502 572.07 879.336 500.519 879.336V877.263C517.521 877.263 534.03 867.177 549.334 848.223C564.625 829.288 578.486 801.76 590.166 767.561C613.519 699.183 628 604.586 628 500.001Z" fill="#F4F3EC"></path>
<path d="M630.073 500.001C630.073 290.501 572.07 120.667 500.519 120.667C428.968 120.667 370.965 290.501 370.965 500.001C370.965 708.683 428.516 878.008 499.681 879.328L500.519 879.336C571.511 879.336 629.166 712.145 630.062 504.904L630.073 500.001ZM627 500.001C627 395.496 612.529 301.013 589.22 232.764C577.56 198.625 563.745 171.218 548.557 152.407C533.346 133.57 517.093 123.74 500.518 123.74C483.944 123.74 467.692 133.57 452.481 152.407C437.293 171.217 423.478 198.625 411.818 232.764C388.509 301.013 374.038 395.496 374.038 500.001C374.038 604.506 388.509 698.989 411.818 767.238C423.478 801.377 437.293 828.785 452.481 847.595C467.692 866.432 483.944 876.262 500.518 876.262C517.093 876.262 533.346 866.432 548.557 847.595C563.745 828.785 577.56 801.377 589.22 767.238C612.529 698.989 627 604.506 627 500.001ZM628 500.001C628 604.586 613.519 699.183 590.166 767.561C578.486 801.76 564.625 829.288 549.334 848.223L548.616 849.105C533.514 867.49 517.255 877.263 500.519 877.263C483.783 877.263 467.524 867.49 452.422 849.105L451.703 848.223C436.413 829.288 422.552 801.76 410.872 767.561C387.883 700.251 373.492 607.536 373.048 504.896L373.038 500.001C373.038 395.416 387.518 300.82 410.872 232.442C422.369 198.777 435.98 171.576 450.987 152.673L451.703 151.779C467.008 132.825 483.517 122.74 500.519 122.74L501.315 122.747C518.036 123.057 534.269 133.121 549.334 151.779C564.625 170.715 578.486 198.242 590.166 232.442C613.519 300.82 628 395.416 628 500.001ZM631.073 500.001C631.073 604.831 616.563 699.779 593.074 768.554C581.331 802.937 567.326 830.833 551.726 850.154C536.132 869.466 518.833 880.336 500.518 880.336C482.204 880.336 464.906 869.466 449.312 850.154C433.712 830.833 419.707 802.937 407.964 768.554C384.475 699.779 369.965 604.831 369.965 500.001C369.965 395.171 384.475 300.223 407.964 231.448C419.707 197.065 433.712 169.169 449.312 149.848C464.906 130.537 482.204 119.667 500.518 119.667C518.833 119.667 536.132 130.536 551.726 149.848C567.326 169.169 581.331 197.065 593.074 231.448C616.563 300.223 631.073 395.171 631.073 500.001Z" fill="#F4F3EC"></path>
<path d="M501.351 530.711C493.898 629.318 444.631 689.435 377.899 704.91C311.683 720.265 228.692 691.556 153.019 613.699L146.046 665.882L143.99 665.608L151.344 610.578L203.191 599.5L203.624 601.527L154.321 612.062C229.74 689.752 312.112 718.037 377.431 702.89C443.046 687.674 491.88 628.524 499.284 530.554L501.351 530.711Z" fill="#F4F3EC"></path>
<path d="M502.348 530.786C494.872 629.702 445.396 690.284 378.125 705.884C311.87 721.248 229.173 692.766 153.74 615.865L146.904 667.005L142.867 666.467L150.446 609.747L203.959 598.313L204.811 602.296L156.305 612.661C231.231 689.216 312.708 716.872 377.205 701.916C442.281 686.825 490.906 628.14 498.286 530.479L498.362 529.481L502.423 529.789L502.348 530.786ZM377.899 704.91C444.631 689.435 493.898 629.318 501.351 530.711L499.284 530.554C491.88 628.524 443.046 687.674 377.431 702.89C312.112 718.037 229.74 689.752 154.321 612.062L203.624 601.527L203.191 599.5L151.344 610.578L143.99 665.608L146.046 665.882L153.019 613.699C228.101 690.948 310.386 719.814 376.344 705.262L377.899 704.91Z" fill="#F4F3EC"></path>
<path d="M498.649 470.326C506.102 371.718 555.369 311.602 622.1 296.127C688.317 280.771 771.308 309.48 846.98 387.338L853.954 335.155L856.01 335.429L848.656 390.459L796.809 401.537L796.376 399.51L845.679 388.974C770.26 311.284 687.888 282.999 622.569 298.147C556.954 313.363 508.12 372.513 500.716 470.482L498.649 470.326Z" fill="#F4F3EC"></path>
<path d="M497.652 470.251C505.128 371.335 554.604 310.753 621.875 295.153C688.13 279.788 770.827 308.271 846.26 385.171L853.096 334.031L857.133 334.569L849.554 391.289L796.041 402.723L795.189 398.741L843.695 388.375C768.769 311.82 687.292 284.164 622.795 299.121C557.719 314.212 509.094 372.897 501.714 470.558L501.638 471.555L497.577 471.248L497.652 470.251ZM622.1 296.127C555.369 311.602 506.102 371.718 498.649 470.326L500.716 470.482C508.12 372.513 556.954 313.363 622.569 298.147C687.888 282.999 770.26 311.284 845.679 388.974L796.376 399.51L796.809 401.537L848.656 390.459L856.01 335.429L853.954 335.155L846.98 387.338C771.899 310.089 689.614 281.223 623.656 295.775L622.1 296.127Z" fill="#F4F3EC"></path>
<path d="M489.502 495.322C486.916 501.407 489.753 508.436 495.837 511.021C501.922 513.607 508.951 510.771 511.537 504.686C514.123 498.601 511.286 491.572 505.201 488.987C499.117 486.401 492.088 489.237 489.502 495.322Z" fill="#8777D9"></path>
</svg>