<svg width="1000" height="1000" viewBox="0 0 1000 1000" fill="none" xmlns="http://www.w3.org/2000/svg">
<path d="M465.439 332.594L466.101 333.421L131.224 603.58L130.562 602.753L465.439 332.594Z" fill="#031531"></path>
<path d="M802.043 332.434L802.437 333.417L131.221 603.734L130.826 602.75L802.043 332.434Z" fill="#031531"></path>
<path d="M294.119 334.982L295.022 335.536L129.238 605.663L128.335 605.109L294.119 334.982Z" fill="#031531"></path>
<path d="M613.477 663.931L613.348 664.983L129.237 605.661L129.366 604.609L613.477 663.931Z" fill="#031531"></path>
<path d="M868.498 502.921L868.646 503.97L130.827 604.076L130.68 603.027L868.498 502.921Z" fill="#031531"></path>
<path d="M628.478 664.723C628.478 673.007 621.762 679.723 613.478 679.723C605.193 679.723 598.478 673.007 598.478 664.723C598.478 656.438 605.193 649.723 613.478 649.723C621.762 649.723 628.478 656.438 628.478 664.723Z" fill="#F2A74E"></path>
<path d="M876.759 503.707C876.759 511.991 870.043 518.707 861.759 518.707C853.475 518.707 846.759 511.991 846.759 503.707C846.759 495.423 853.475 488.707 861.759 488.707C870.043 488.707 876.759 495.423 876.759 503.707Z" fill="#F2A74E"></path>
<path d="M310.021 334.98C310.021 343.265 303.306 349.98 295.021 349.98C286.737 349.98 280.021 343.265 280.021 334.98C280.021 326.696 286.737 319.98 295.021 319.98C303.306 319.98 310.021 326.696 310.021 334.98Z" fill="#F2A74E"></path>
<path d="M145.68 603.582C145.68 611.866 138.964 618.582 130.68 618.582C122.395 618.582 115.68 611.866 115.68 603.582C115.68 595.298 122.395 588.582 130.68 588.582C138.964 588.582 145.68 595.298 145.68 603.582Z" fill="#F2A74E"></path>
</svg>