<svg width="1000" height="1000" viewBox="0 0 1000 1000" fill="none" xmlns="http://www.w3.org/2000/svg">
<path d="M415.743 241.531V411.714H245.56V241.531H415.743ZM247.575 409.699H413.728V243.546H247.575V409.699Z" fill="#031531"></path>
<path d="M415.743 409.32V579.503H245.56V409.32H415.743ZM247.575 577.488H413.728V411.335H247.575V577.488Z" fill="#031531"></path>
<path d="M415.743 577.105V747.288H245.56V577.105H415.743ZM247.575 745.273H413.728V579.12H247.575V745.273Z" fill="#031531"></path>
<path d="M583.53 241.531V411.714H413.347V241.531H583.53ZM415.362 409.699H581.515V243.546H415.362V409.699Z" fill="#031531"></path>
<path d="M583.53 409.32V579.503H413.347V409.32H583.53ZM415.362 577.488H581.515V411.335H415.362V577.488Z" fill="#031531"></path>
<path d="M583.53 577.105V747.288H413.347V577.105H583.53ZM415.362 745.273H581.515V579.12H415.362V745.273Z" fill="#031531"></path>
<path d="M751.316 241.531V411.714H581.133V241.531H751.316ZM583.148 409.699H749.301V243.546H583.148V409.699Z" fill="#031531"></path>
<path d="M751.316 409.32V579.503H581.133V409.32H751.316ZM583.148 577.488H749.301V411.335H583.148V577.488Z" fill="#031531"></path>
<path d="M751.316 577.105V747.288H581.133V577.105H751.316ZM583.148 745.273H749.301V579.12H583.148V745.273Z" fill="#031531"></path>
<path d="M237.5 492.953C237.5 499.38 242.71 504.59 249.136 504.59C255.563 504.59 260.773 499.38 260.773 492.953C260.773 486.526 255.563 481.316 249.136 481.316C242.71 481.316 237.5 486.526 237.5 492.953Z" fill="#8777D9"></path>
<path d="M570.978 409.328C570.978 415.755 576.188 420.965 582.614 420.965C589.041 420.965 594.251 415.755 594.251 409.328C594.251 402.901 589.041 397.691 582.614 397.691C576.188 397.691 570.978 402.901 570.978 409.328Z" fill="#8777D9"></path>
<path d="M739.227 746.832C739.227 753.259 744.437 758.468 750.863 758.468C757.29 758.468 762.5 753.259 762.5 746.832C762.5 740.405 757.29 735.195 750.863 735.195C744.437 735.195 739.227 740.405 739.227 746.832Z" fill="#8777D9"></path>
</svg>