<svg xmlns="http://www.w3.org/2000/svg" width="25.962" height="27.879" viewBox="0 0 25.962 27.879" fill="none">
  <path d="M 5.314 9.409 C 5.576 10.542 6.621 11.326 6.621 11.326 C 3.136 11.326 0.261 8.625 0 5.227 C 0 5.053 0 0 0 0 L 4.792 0 C 7.405 0 9.496 2.091 9.496 4.705 C 9.496 7.144 7.667 9.148 5.314 9.409 Z M 24.568 8.102 C 25.439 7.231 25.962 6.098 25.962 4.792 L 25.962 0.087 L 21.258 0.087 C 19.951 0.087 18.731 0.61 17.947 1.481 L 1.394 19.777 C 0.523 20.648 0 21.78 0 23.087 L 0 27.792 L 4.705 27.792 C 6.011 27.792 7.231 27.269 8.015 26.398 L 24.568 8.102 Z M 20.648 18.47 C 20.386 17.337 19.341 16.553 19.341 16.553 C 22.826 16.553 25.701 19.254 25.962 22.652 C 25.962 22.826 25.962 27.879 25.962 27.879 L 21.258 27.879 C 18.644 27.879 16.553 25.788 16.553 23.174 C 16.466 20.735 18.295 18.731 20.648 18.47 Z" fill="currentColor" fill-rule="nonzero"></path>
</svg>