<svg xmlns="http://www.w3.org/2000/svg" width="81.371" height="15.246" viewBox="0 0 81.371 15.246" fill="none">
  <path d="M 5.314 4.443 C 7.405 4.443 8.625 5.314 9.322 6.273 L 7.58 7.928 C 7.057 7.231 6.36 6.883 5.489 6.883 C 3.92 6.883 2.788 8.015 2.788 9.845 C 2.788 11.674 3.92 12.807 5.489 12.807 C 6.447 12.807 7.144 12.371 7.58 11.761 L 9.322 13.417 C 8.625 14.375 7.405 15.246 5.314 15.246 C 2.178 15.246 0 13.068 0 9.932 C 0 6.795 2.178 4.443 5.314 4.443 Z M 10.629 4.705 L 13.242 4.705 L 13.242 6.098 C 13.939 5.227 15.159 4.443 16.466 4.443 L 16.466 7.057 C 16.292 7.057 16.03 6.97 15.769 6.97 C 14.898 6.97 13.765 7.492 13.242 8.102 L 13.242 14.811 L 10.629 14.811 L 10.629 4.705 Z M 21.955 4.443 C 24.917 4.443 27.008 6.708 27.008 10.019 L 27.008 10.629 L 19.515 10.629 C 19.689 11.936 20.735 12.981 22.39 12.981 C 23.348 12.981 24.394 12.633 25.091 12.023 L 26.223 13.765 C 25.265 14.723 23.61 15.159 22.042 15.159 C 18.992 15.159 16.64 13.068 16.64 9.845 C 16.727 6.795 18.905 4.443 21.955 4.443 Z M 19.428 8.799 L 24.394 8.799 C 24.307 7.841 23.697 6.534 21.867 6.534 C 20.299 6.534 19.602 7.754 19.428 8.799 Z M 34.413 13.678 C 33.716 14.462 32.496 14.985 31.189 14.985 C 29.621 14.985 27.705 13.939 27.705 11.674 C 27.705 9.322 29.621 8.451 31.189 8.451 C 32.496 8.451 33.716 8.886 34.413 9.67 L 34.413 8.276 C 34.413 7.231 33.542 6.621 32.148 6.621 C 31.102 6.621 30.057 6.97 29.186 7.841 L 28.227 6.098 C 29.447 5.053 31.015 4.53 32.67 4.53 C 34.936 4.53 37.114 5.489 37.114 8.364 L 37.114 14.898 L 34.5 14.898 L 34.413 13.678 Z M 34.413 11.064 C 33.977 10.455 33.106 10.193 32.322 10.193 C 31.276 10.193 30.405 10.716 30.405 11.761 C 30.405 12.72 31.276 13.242 32.322 13.242 C 33.193 13.242 33.977 12.981 34.413 12.371 L 34.413 11.064 Z M 39.64 12.284 L 39.64 7.057 L 37.985 7.057 L 37.985 4.705 L 39.64 4.705 L 39.64 1.917 L 42.341 1.917 L 42.341 4.705 L 44.344 4.705 L 44.344 7.057 L 42.341 7.057 L 42.341 11.587 C 42.341 12.197 42.689 12.72 43.299 12.72 C 43.648 12.72 44.083 12.545 44.257 12.458 L 44.868 14.462 C 44.519 14.811 43.735 15.072 42.602 15.072 C 40.598 14.985 39.64 14.026 39.64 12.284 Z M 46.348 1.568 C 46.348 0.697 47.045 0 47.917 0 C 48.788 0 49.485 0.697 49.485 1.568 C 49.485 2.439 48.788 3.136 47.917 3.136 C 47.045 3.223 46.348 2.439 46.348 1.568 Z M 46.61 4.705 L 49.223 4.705 L 49.223 14.811 L 46.61 14.811 L 46.61 4.705 Z M 50.007 4.705 L 52.882 4.705 L 55.496 11.761 L 58.11 4.705 L 60.985 4.705 L 56.89 14.811 L 54.102 14.811 L 50.007 4.705 Z M 65.951 4.443 C 68.913 4.443 71.004 6.708 71.004 10.019 L 71.004 10.629 L 63.511 10.629 C 63.686 11.936 64.731 12.981 66.386 12.981 C 67.344 12.981 68.39 12.633 69.087 12.023 L 70.219 13.765 C 69.261 14.723 67.606 15.159 66.038 15.159 C 62.989 15.159 60.636 13.068 60.636 9.845 C 60.723 6.795 62.814 4.443 65.951 4.443 Z M 63.424 8.799 L 68.39 8.799 C 68.303 7.841 67.693 6.534 65.864 6.534 C 64.295 6.534 63.598 7.754 63.424 8.799 Z M 77.364 9.583 L 81.023 4.705 L 79.019 4.705 L 76.231 8.538 L 73.443 4.705 L 71.439 4.705 L 75.098 9.583 L 71.265 14.811 L 73.269 14.811 L 76.318 10.716 L 79.368 14.811 L 81.371 14.811 L 77.364 9.583 Z" fill="currentColor" fill-rule="nonzero"></path>
</svg>