<svg width="96" height="104" viewBox="0 0 96 104" fill="none" xmlns="http://www.w3.org/2000/svg">
<path d="M74.1551 40.2998H21.66C11.9043 40.2998 4.00684 48.1973 4.00684 57.953V99.4148C4.00684 101.912 6.03927 103.886 8.4782 103.886H87.3369C89.8339 103.886 91.8083 101.854 91.8083 99.4148V58.0111C91.8663 48.2554 83.9108 40.2998 74.1551 40.2998Z" fill="#17A2B8"></path>
<path d="M47.9076 28.3379C39.894 28.3379 33.0417 33.3319 30.2544 40.3003H37.1066C39.4294 36.758 43.3782 34.4352 47.9076 34.4352C52.437 34.4352 56.4438 36.758 58.7086 40.3003H65.5608C62.7734 33.3319 55.9212 28.3379 47.9076 28.3379Z" fill="#00A3BF"></path>
<path d="M47.9074 19.6853C46.8621 19.6853 45.8749 19.5111 44.9458 19.2207V28.5699C45.933 28.3957 46.9202 28.3377 47.9074 28.3377C48.8945 28.3377 49.9398 28.3957 50.8689 28.5699V19.2207C49.9398 19.5111 48.9526 19.6853 47.9074 19.6853Z" fill="#00A3BF"></path>
<path d="M68.6385 81.4717V83.446C68.6385 84.7817 67.5933 85.8269 66.2577 85.8269H29.5576C28.222 85.8269 27.1768 84.7817 27.1768 83.446V81.4717C27.1768 80.1361 26.1315 79.0908 24.7959 79.0908C23.4603 79.0908 22.415 80.1361 22.415 81.4717V85.8269C22.415 88.4981 24.5636 90.5886 27.1768 90.5886H68.6966C71.3678 90.5886 73.4583 88.44 73.4583 85.8269V81.4717C73.4583 80.1361 72.4131 79.0908 71.0775 79.0908C69.7419 79.0908 68.6385 80.1361 68.6385 81.4717Z" fill="#F5F0E3"></path>
<path d="M94.5374 79.9034H91.8081V61.8438H94.5374C95.2342 61.8438 95.8149 62.4244 95.8149 63.1213V78.6259C95.8149 79.3227 95.2923 79.9034 94.5374 79.9034Z" fill="#FFAB00"></path>
<path d="M1.27753 61.8438H4.00681V79.9034H1.27753C0.580698 79.9034 0 79.3227 0 78.6259V63.1213C0 62.4244 0.580698 61.8438 1.27753 61.8438Z" fill="#FFAB00"></path>
<path d="M35.3646 52.9584C30.4868 52.8423 26.48 57.0233 26.48 61.9012V62.1915V63.469C26.48 63.5852 26.5961 63.7013 26.7123 63.7013H31.1256C31.2417 63.7013 31.3578 63.5852 31.3578 63.469V62.1915V61.8431C31.3578 59.7526 32.9257 58.0105 35.0162 57.9524C37.1648 57.8943 38.9069 59.5784 38.9069 61.7269V62.2496V63.5271C38.9069 63.6433 39.023 63.7594 39.1392 63.7594H43.5525C43.6686 63.7594 43.7848 63.6433 43.7848 63.5271V62.2496V61.7269C43.9009 56.9072 40.1264 53.0165 35.3646 52.9584Z" fill="#F5F0E3"></path>
<path d="M60.7992 53.017C55.9214 52.9009 51.9146 57.0819 51.9146 61.9597V62.2501V63.5276C51.9146 63.6438 52.0307 63.7599 52.1468 63.7599H56.5601C56.6763 63.7599 56.7924 63.6438 56.7924 63.5276V62.2501V61.9017C56.7924 59.8112 58.3603 58.0691 60.4508 58.011C62.5994 57.9529 64.3415 59.637 64.3415 61.7855V62.3082V63.5857C64.3415 63.7018 64.4576 63.818 64.5737 63.818H68.9871C69.1032 63.818 69.2193 63.7018 69.2193 63.5857V62.3082V61.7855C69.3935 56.9658 65.5609 53.0751 60.7992 53.017Z" fill="#F5F0E3"></path>
<path d="M47.9075 19.7437C53.3596 19.7437 57.7794 15.3239 57.7794 9.87185C57.7794 4.41978 53.3596 0 47.9075 0C42.4554 0 38.0356 4.41978 38.0356 9.87185C38.0356 15.3239 42.4554 19.7437 47.9075 19.7437Z" fill="#FFAB00"></path>
</svg>