<svg width="250" height="150" viewBox="0 0 250 150" fill="none" xmlns="http://www.w3.org/2000/svg">
<path d="M85 31.4234C85 28.9804 86.9804 27 89.4234 27H160.577C163.02 27 165 28.9804 165 31.4234V119.116C165 120.83 163.134 121.893 161.66 121.018L127.877 100.974C127.208 100.577 126.379 100.561 125.694 100.932L88.266 121.229C86.7923 122.028 85 120.961 85 119.285V31.4234Z" fill="#FFDADF"></path>
<path d="M85 31.4234C85 28.9804 86.9804 27 89.4234 27H160.577C163.02 27 165 28.9804 165 31.4234V37.5H126.798H85V31.4234Z" fill="#FF9DA9"></path>
<rect x="107.222" y="51.8887" width="35.5556" height="35.5556" rx="17.7778" fill="#FF6275"></rect>
<circle cx="132.111" cy="65.2218" r="2.66667" fill="#FFDADF"></circle>
<circle cx="117.889" cy="65.2218" r="2.66667" fill="#FFDADF"></circle>
<path d="M132.057 73.2217C132.548 73.2217 132.952 73.622 132.884 74.1082C132.393 77.6171 129.026 80.3326 124.946 80.3328C120.865 80.3328 117.498 77.6172 117.007 74.1082C116.939 73.622 117.344 73.2217 117.835 73.2217C117.835 73.2217 122.147 74.1106 124.946 74.1106C127.744 74.1106 132.057 73.2217 132.057 73.2217Z" fill="#FFDADF"></path>
</svg>